<?xml version="1.0" encoding="UTF-8"?>
<!-- Created with Inkscape (http://www.inkscape.org/) -->
<svg fill="white" width="76.465mm" height="49.531mm" version="1.1" viewBox="0 0 76.465 49.531" xml:space="preserve" xmlns="http://www.w3.org/2000/svg"><g><path d="m33.924 41.113c-4.2147-1.9624-8.0681-5.8752-10.128-10.284-1.4815-3.1708-1.6747-4.4184-1.873-12.09-0.25302-9.7916-0.4528-9.4238 5.5307-10.181 1.8937-0.23978 5.0629-1.1611 7.0427-2.0474l3.5996-1.6115 3.5996 1.6115c1.9798 0.88633 5.149 1.8077 7.0427 2.0474 5.9835 0.75756 5.7838 0.38973 5.5307 10.181-0.19823 7.6714-0.3915 8.9191-1.873 12.09-0.90856 1.9446-2.8316 4.7154-4.2735 6.1573-2.5164 2.5164-8.0631 5.6321-10.026 5.6321-0.51646 0-2.3938-0.67736-4.1719-1.5053zm9.0721-5.1755c2.9553-1.6961 6.0072-5.9184 7.0339-9.7311 0.34922-1.2969 0.55358-4.7986 0.45406-7.7815l-0.18085-5.4234-3.768-0.76706c-2.0724-0.42189-4.819-1.2062-6.1036-1.743-2.1153-0.88384-2.5559-0.88384-4.6712 0-1.2846 0.53672-4.0312 1.3211-6.1036 1.743l-3.768 0.76706-0.18085 5.4234c-0.09945 2.9829 0.11564 6.5245 0.47801 7.8703 1.1348 4.2142 4.3519 8.2775 8.0922 10.221 3.7071 1.926 4.4391 1.8774 8.7181-0.5785zm-7.8957-0.27054c-5.5564-2.7491-8.2727-8.2829-8.2727-16.854v-4.8094l2.8738-0.39387c1.5806-0.21664 4.1159-0.94335 5.6341-1.6149 2.737-1.2107 2.7837-1.2107 5.5207 0 1.5182 0.67158 4.0535 1.3983 5.6341 1.6149l2.8738 0.39387v4.8235c0 7.9345-2.344 13.323-7.0293 16.16-3.2844 1.9886-4.3802 2.0915-7.2345 0.67935z" stroke-width=".62602"/><path d="m44.627 46.507c-1.2372-0.33065-0.32834-1.0402 3.0898-2.413 3.181-1.2775 7.1827-3.5779 9.5012-5.4618l0.89467-0.72697-1.0451-0.14914c-0.8874-0.12666-1.161-0.44274-1.8129-2.0943-0.82202-2.0825-0.92928-5.5244-0.17213-5.5224 0.23743 5.6e-4 1.199 0.74049 2.1368 1.6441 1.2816 1.2349 1.791 2.0216 2.0511 3.1673 0.31802 1.4009 0.42253 1.5059 1.292 1.2964 1.866-0.44964 7.1789 1.3036 6.7193 2.2172-0.10135 0.20151-1.4682 0.79045-3.0373 1.3088-3.1609 1.0441-4.6015 0.82041-5.1359-0.79752-0.34984-1.0591-0.34026-1.0626-2.1856 0.79302-2.6219 2.6359-10.825 7.1314-12.296 6.7383zm19.701-11.049c-0.49125-0.10386-0.90934-0.60619-1.1757-1.4126-0.38619-1.1692-0.47508-1.2167-1.3532-0.72331-1.4462 0.81259-2.5296 0.24482-3.4-1.7819-0.74526-1.7353-1.1091-5.2732-0.56089-5.4542 0.6759-0.22326 4.3832 3.357 4.8072 4.6425l0.43672 1.3242 1.6184-0.65051c1.2749-0.51241 2.1038-0.54791 3.9052-0.16746 1.2578 0.26564 2.3379 0.63768 2.4004 0.82677 0.15568 0.47131-3.0051 2.6237-4.6084 3.1382-0.71892 0.23114-1.6504 0.34698-2.0697 0.25832zm2.5717-6.058c-0.33639-0.31996-0.7075-0.87204-0.8247-1.2268-0.16573-0.50174-0.27839-0.51546-0.50667-0.0619-0.16149 0.32078-0.84418 0.76509-1.5171 0.98735-1.0853 0.35848-1.361 0.25504-2.4411-0.91575-1.2353-1.339-2.9152-5.4189-2.3132-5.6178 0.7495-0.24757 5.3229 2.3401 5.8848 3.3297 0.45953 0.80925 0.71748 0.95012 1.104 0.60285 1.0311-0.92642 2.9322-1.6252 4.9719-1.8275 1.1553-0.1146 2.1468-0.0684 2.2033 0.10263s-0.64321 1.2096-1.5549 2.3079c-1.9346 2.3307-3.9922 3.284-5.0064 2.3194zm1.4724-6.1164c-0.45393-0.25761-0.8984-0.68961-0.9877-0.95998-0.10725-0.32469-0.36038-0.12705-0.74554 0.58207-0.80255 1.4775-1.8802 1.7245-3.4104 0.78156-1.4316-0.88218-3.9787-4.1612-3.6852-4.7442 0.30805-0.6119 4.9823 0.44173 6.2323 1.4048 0.99623 0.76758 1.2021 0.79725 1.4337 0.20656 0.5408-1.3792 5.8422-4.3819 6.1407-3.4781 0.17507 0.53-1.5295 4.9246-2.1723 5.6003-0.86963 0.9143-1.8791 1.1327-2.8056 0.60689zm-4.6692-4.5176c-1.6244-0.4391-4.8959-2.636-4.6507-3.1231 0.30324-0.60236 4.8301-1.2066 6.4317-0.85856l1.4206 0.30876 0.2589-1.1882c0.28365-1.3018 3.662-5.1098 4.1614-4.6907 0.43499 0.36505 0.48296 3.8899 0.0763 5.6046-0.25613 1.0799-0.59696 1.5141-1.3956 1.7779-0.58117 0.19197-1.3428 0.17002-1.6925-0.04876-0.88506-0.5537-1.142-0.38708-1.2742 0.8261-0.13913 1.2772-1.5626 1.8712-3.3359 1.3919zm-2.5676-4.8278c-0.73356-0.13837-2.0446-0.51934-2.9134-0.84661-1.9172-0.72218-1.6977-1.1727 1.2346-2.5338 1.4136-0.65617 2.416-0.88946 3.4725-0.80823 1.4709 0.11312 1.4844 0.10408 1.4019-0.93723-0.0928-1.1707 1.901-5.5563 2.6364-5.7992 0.31792-0.10501 0.65557 0.40739 1.0416 1.5806 0.81163 2.4667 0.82531 4.5971 0.036 5.5898-0.61592 0.77467-0.80305 0.83515-1.9953 0.6453-1.2525-0.19984-1.3045-0.17559-1.08 0.50406 0.58071 1.7581-1.3547 3.0734-3.8341 2.6057zm-0.88141-5.2137c-1.1581-0.92076-2.2785-2.6186-2.8302-4.2889l-0.45643-1.3818 1.306 0.20837c2.0617 0.32895 5.1039 2.0231 5.4355 3.0269 0.66012 1.9985-1.8123 3.7414-3.4548 2.4354z" stroke-width=".38475"/><path d="m31.838 46.507c1.2372-0.33065 0.32834-1.0402-3.0898-2.413-3.181-1.2775-7.1827-3.5779-9.5012-5.4618l-0.89467-0.72697 1.0451-0.14914c0.8874-0.12666 1.161-0.44274 1.8129-2.0943 0.82202-2.0825 0.92928-5.5244 0.17213-5.5224-0.23743 5.6e-4 -1.199 0.74049-2.1368 1.6441-1.2816 1.2349-1.791 2.0216-2.0511 3.1673-0.31802 1.4009-0.42253 1.5059-1.292 1.2964-1.866-0.44964-7.1789 1.3036-6.7193 2.2172 0.10135 0.20151 1.4682 0.79045 3.0373 1.3088 3.1609 1.0441 4.6015 0.82041 5.1359-0.79752 0.34984-1.0591 0.34026-1.0626 2.1856 0.79302 2.6219 2.6359 10.825 7.1314 12.296 6.7383zm-19.701-11.049c0.49125-0.10386 0.90934-0.60619 1.1757-1.4126 0.38619-1.1692 0.47508-1.2167 1.3532-0.72331 1.4462 0.81259 2.5296 0.24482 3.4-1.7819 0.74526-1.7353 1.1091-5.2732 0.56089-5.4542-0.6759-0.22326-4.3832 3.357-4.8072 4.6425l-0.43672 1.3242-1.6184-0.65051c-1.2749-0.51241-2.1038-0.54791-3.9052-0.16746-1.2578 0.26564-2.3379 0.63768-2.4004 0.82677-0.15568 0.47131 3.0051 2.6237 4.6084 3.1382 0.71892 0.23114 1.6504 0.34698 2.0697 0.25832zm-2.5717-6.058c0.33639-0.31996 0.7075-0.87204 0.8247-1.2268 0.16573-0.50174 0.27839-0.51546 0.50667-0.0619 0.16149 0.32078 0.84418 0.76509 1.5171 0.98735 1.0853 0.35848 1.361 0.25504 2.4411-0.91575 1.2353-1.339 2.9152-5.4189 2.3132-5.6178-0.7495-0.24757-5.3229 2.3401-5.8848 3.3297-0.45953 0.80925-0.71748 0.95012-1.104 0.60285-1.0311-0.92642-2.9322-1.6252-4.9719-1.8275-1.1553-0.1146-2.1468-0.0684-2.2033 0.10263s0.64321 1.2096 1.5549 2.3079c1.9346 2.3307 3.9922 3.284 5.0064 2.3194zm-1.4724-6.1164c0.45393-0.25761 0.8984-0.68961 0.9877-0.95998 0.10725-0.32469 0.36038-0.12705 0.74554 0.58207 0.80255 1.4775 1.8802 1.7245 3.4104 0.78155 1.4316-0.88217 3.9787-4.1612 3.6852-4.7442-0.30805-0.6119-4.9823 0.44173-6.2323 1.4048-0.99623 0.76758-1.2021 0.79725-1.4337 0.20656-0.5408-1.3792-5.8422-4.3819-6.1407-3.4781-0.17507 0.53 1.5295 4.9246 2.1723 5.6003 0.86963 0.9143 1.8791 1.1327 2.8056 0.60689zm4.6692-4.5176c1.6244-0.4391 4.8959-2.636 4.6507-3.1231-0.30324-0.60236-4.8301-1.2066-6.4317-0.85856l-1.4206 0.30876-0.2589-1.1882c-0.28365-1.3018-3.662-5.1098-4.1614-4.6907-0.43499 0.36505-0.48296 3.8899-0.0763 5.6046 0.25613 1.0799 0.59696 1.5141 1.3956 1.7779 0.58117 0.19197 1.3428 0.17002 1.6925-0.04876 0.88506-0.5537 1.142-0.38708 1.2742 0.8261 0.13913 1.2772 1.5626 1.8712 3.3359 1.3919zm2.5676-4.8278c0.73356-0.13837 2.0446-0.51934 2.9134-0.84661 1.9172-0.72218 1.6977-1.1727-1.2346-2.5338-1.4136-0.65617-2.416-0.88946-3.4725-0.80823-1.4709 0.11312-1.4844 0.10408-1.4019-0.93723 0.0928-1.1707-1.901-5.5563-2.6364-5.7992-0.31792-0.10501-0.65557 0.40739-1.0416 1.5806-0.81163 2.4667-0.82531 4.5971-0.036 5.5898 0.61592 0.77467 0.80305 0.83515 1.9953 0.6453 1.2525-0.19984 1.3045-0.17559 1.08 0.50406-0.58071 1.7581 1.3547 3.0734 3.8341 2.6057zm0.88141-5.2137c1.1581-0.92076 2.2785-2.6186 2.8302-4.2889l0.45643-1.3818-1.306 0.20837c-2.0617 0.32895-5.1039 2.0231-5.4355 3.0269-0.66012 1.9985 1.8123 3.7414 3.4548 2.4354z" stroke-width=".38475"/></g></svg>
